# xmcd CD database file
#
# Track frame offsets:
#	150
#	9480
#	25380
#	39665
#	57277
#	72702
#	83397
#	92097
#	114325
#	131447
#	147505
#	159045
#
# Disc length: 2282 seconds
#
# Revision: 0
# Processed by: cddbd v1.4PL0 Copyright (c) Steve Scherf et al.
# Submitted via: CDex 1.50Beta7
#
DISCID=9608e80c
DTITLE=Hugh Feely and Talk Is Cheap - Power Blues
DYEAR=1900
DGENRE=Blues
TTITLE0=Frieght Train
TTITLE1=Hugh's Walkin' Blues
TTITLE2=Money To Burn
TTITLE3=Spanish
TTITLE4=Livin' Day To Day (SRV Tribute)
TTITLE5=Brand New Cadillac
TTITLE6=Ride The Wave
TTITLE7=Message From The Meters
TTITLE8=Mardi Gras
TTITLE9=I'm Gonna Love U
TTITLE10=Florida Bee
TTITLE11=Do You Know
EXTD=
EXTT0=
EXTT1=
EXTT2=
EXTT3=
EXTT4=
EXTT5=
EXTT6=
EXTT7=
EXTT8=
EXTT9=
EXTT10=
EXTT11=
PLAYORDER=
